<?xml version="1.0" encoding="UTF-8"?>
<!DOCTYPE svg PUBLIC "-//W3C//DTD SVG 1.1//EN" "http://www.w3.org/Graphics/SVG/1.1/DTD/svg11.dtd">
<svg version="1.2" width="254mm" height="254mm" viewBox="0 0 25400 25400" preserveAspectRatio="xMidYMid" fill-rule="evenodd" stroke-width="28.222" stroke-linejoin="round" xmlns="http://www.w3.org/2000/svg" xmlns:ooo="http://xml.openoffice.org/svg/export" xmlns:xlink="http://www.w3.org/1999/xlink" xmlns:presentation="http://sun.com/xmlns/staroffice/presentation" xmlns:smil="http://www.w3.org/2001/SMIL20/" xmlns:anim="urn:oasis:names:tc:opendocument:xmlns:animation:1.0" xml:space="preserve">
 <defs class="ClipPathGroup">
  <clipPath id="presentation_clip_path" clipPathUnits="userSpaceOnUse">
   <rect x="0" y="0" width="25400" height="25400"/>
  </clipPath>
  <clipPath id="presentation_clip_path_shrink" clipPathUnits="userSpaceOnUse">
   <rect x="25" y="25" width="25350" height="25350"/>
  </clipPath>
 </defs>
 <defs class="TextShapeIndex">
  <g ooo:slide="id1" ooo:id-list="id3"/>
 </defs>
 <defs class="EmbeddedBulletChars">
  <g id="bullet-char-template-57356" transform="scale(0.00048828125,-0.00048828125)">
   <path d="M 580,1141 L 1163,571 580,0 -4,571 580,1141 Z"/>
  </g>
  <g id="bullet-char-template-57354" transform="scale(0.00048828125,-0.00048828125)">
   <path d="M 8,1128 L 1137,1128 1137,0 8,0 8,1128 Z"/>
  </g>
  <g id="bullet-char-template-10146" transform="scale(0.00048828125,-0.00048828125)">
   <path d="M 174,0 L 602,739 174,1481 1456,739 174,0 Z M 1358,739 L 309,1346 659,739 1358,739 Z"/>
  </g>
  <g id="bullet-char-template-10132" transform="scale(0.00048828125,-0.00048828125)">
   <path d="M 2015,739 L 1276,0 717,0 1260,543 174,543 174,936 1260,936 717,1481 1274,1481 2015,739 Z"/>
  </g>
  <g id="bullet-char-template-10007" transform="scale(0.00048828125,-0.00048828125)">
   <path d="M 0,-2 C -7,14 -16,27 -25,37 L 356,567 C 262,823 215,952 215,954 215,979 228,992 255,992 264,992 276,990 289,987 310,991 331,999 354,1012 L 381,999 492,748 772,1049 836,1024 860,1049 C 881,1039 901,1025 922,1006 886,937 835,863 770,784 769,783 710,716 594,584 L 774,223 C 774,196 753,168 711,139 L 727,119 C 717,90 699,76 672,76 641,76 570,178 457,381 L 164,-76 C 142,-110 111,-127 72,-127 30,-127 9,-110 8,-76 1,-67 -2,-52 -2,-32 -2,-23 -1,-13 0,-2 Z"/>
  </g>
  <g id="bullet-char-template-10004" transform="scale(0.00048828125,-0.00048828125)">
   <path d="M 285,-33 C 182,-33 111,30 74,156 52,228 41,333 41,471 41,549 55,616 82,672 116,743 169,778 240,778 293,778 328,747 346,684 L 369,508 C 377,444 397,411 428,410 L 1163,1116 C 1174,1127 1196,1133 1229,1133 1271,1133 1292,1118 1292,1087 L 1292,965 C 1292,929 1282,901 1262,881 L 442,47 C 390,-6 338,-33 285,-33 Z"/>
  </g>
  <g id="bullet-char-template-9679" transform="scale(0.00048828125,-0.00048828125)">
   <path d="M 813,0 C 632,0 489,54 383,161 276,268 223,411 223,592 223,773 276,916 383,1023 489,1130 632,1184 813,1184 992,1184 1136,1130 1245,1023 1353,916 1407,772 1407,592 1407,412 1353,268 1245,161 1136,54 992,0 813,0 Z"/>
  </g>
  <g id="bullet-char-template-8226" transform="scale(0.00048828125,-0.00048828125)">
   <path d="M 346,457 C 273,457 209,483 155,535 101,586 74,649 74,723 74,796 101,859 155,911 209,963 273,989 346,989 419,989 480,963 531,910 582,859 608,796 608,723 608,648 583,586 532,535 482,483 420,457 346,457 Z"/>
  </g>
  <g id="bullet-char-template-8211" transform="scale(0.00048828125,-0.00048828125)">
   <path d="M -4,459 L 1135,459 1135,606 -4,606 -4,459 Z"/>
  </g>
  <g id="bullet-char-template-61548" transform="scale(0.00048828125,-0.00048828125)">
   <path d="M 173,740 C 173,903 231,1043 346,1159 462,1274 601,1332 765,1332 928,1332 1067,1274 1183,1159 1299,1043 1357,903 1357,740 1357,577 1299,437 1183,322 1067,206 928,148 765,148 601,148 462,206 346,322 231,437 173,577 173,740 Z"/>
  </g>
 </defs>
 <g>
  <g id="id2" class="Master_Slide">
   <g id="bg-id2" class="Background"/>
   <g id="bo-id2" class="BackgroundObjects"/>
  </g>
 </g>
 <g class="SlideGroup">
  <g>
   <g id="container-id1">
    <g id="id1" class="Slide" clip-path="url(#presentation_clip_path)">
     <g class="Page">
      <g class="com.sun.star.drawing.ClosedBezierShape">
       <g id="id3">
        <rect class="BoundingBox" stroke="none" fill="none" x="0" y="0" width="25401" height="25401"/>
        <g>
         <defs>
          <linearGradient id="gradient1" x1="18267" y1="27996" x2="7133" y2="-2596" gradientUnits="userSpaceOnUse">
           <stop offset="0" style="stop-color:rgb(242,227,172)"/>
           <stop offset="1" style="stop-color:rgb(169,77,255)"/>
          </linearGradient>
         </defs>
         <path style="fill:url(#gradient1)" d="M 19509,11987 L 19565,11764 19613,11539 19654,11313 19688,11085 19715,10856 19734,10626 19745,10395 19749,10164 19749,10163 19745,9931 19734,9700 19715,9470 19688,9241 19654,9013 19613,8787 19565,8562 19509,8339 19445,8118 19375,7899 19298,7683 19213,7468 19121,7257 19023,7048 18917,6842 18804,6640 18804,6639 18804,6639 18685,6441 18560,6246 18428,6057 18291,5871 18148,5691 17999,5516 17844,5345 17684,5180 17519,5020 17348,4866 17173,4717 16993,4573 16808,4436 16618,4304 16423,4179 16225,4060 16225,4060 16225,4060 16022,3947 15816,3841 15607,3743 15396,3651 15181,3566 14964,3489 14745,3419 14524,3355 14301,3300 14076,3251 13850,3210 13622,3176 13393,3149 13163,3131 12932,3119 12701,3115 12469,3119 12238,3131 12008,3149 11779,3176 11551,3210 11325,3251 11100,3300 10877,3355 10656,3419 10437,3489 10220,3566 10005,3651 9794,3743 9585,3841 9379,3947 9176,4060 9176,4060 9176,4060 8978,4179 8783,4304 8593,4436 8408,4573 8228,4717 8053,4866 7882,5020 7717,5180 7557,5345 7402,5516 7253,5691 7110,5871 6973,6057 6841,6246 6716,6441 6597,6639 6597,6639 6597,6640 6484,6842 6378,7048 6280,7257 6188,7468 6103,7683 6026,7899 5956,8118 5892,8339 5836,8562 5788,8787 5747,9014 5713,9242 5686,9471 5667,9701 5656,9932 5652,10164 5656,10395 5667,10626 5686,10856 5713,11085 5747,11313 5788,11539 5836,11764 5892,11987 5956,12209 6026,12428 6103,12644 6188,12859 6280,13070 6378,13279 6484,13485 6597,13688 6597,13688 6597,13688 6716,13887 6841,14081 6973,14271 7110,14456 7254,14636 7402,14812 7557,14982 7717,15147 8017,15430 8334,15696 8666,15942 9014,16170 8259,16341 7519,16544 6796,16777 6093,17042 5347,17367 4636,17724 3962,18112 3325,18529 3017,18752 2720,18982 2433,19218 2158,19462 1893,19712 1640,19968 1399,20230 1169,20498 1169,20498 825,20942 515,21398 373,21629 240,21863 116,22098 0,22336 0,0 25400,0 25400,22336 25284,22098 25160,21862 25027,21629 24885,21397 24575,20942 24231,20497 24230,20497 24001,20229 23760,19967 23507,19711 23242,19461 22967,19218 22680,18981 22383,18752 22075,18529 21438,18112 20764,17724 20053,17367 19307,17042 18604,16777 17882,16544 17142,16341 16387,16170 16734,15942 17067,15696 17384,15430 17684,15147 17844,14982 17999,14812 18147,14636 18291,14456 18428,14271 18560,14081 18685,13887 18804,13688 18804,13688 18804,13688 18917,13485 19023,13279 19121,13070 19213,12859 19298,12644 19375,12428 19445,12209 19509,11987 Z M 719,25359 L 726,25101 745,24843 777,24587 820,24332 875,24078 941,23825 1020,23575 1109,23326 1212,23075 1327,22826 1454,22580 1592,22336 1741,22096 1902,21858 2074,21625 2257,21394 2456,21161 2666,20933 2887,20711 3117,20494 3357,20282 3607,20077 4133,19683 4705,19308 5312,18960 5951,18640 6621,18349 7314,18089 8029,17862 8761,17668 9508,17508 10269,17381 11040,17289 11820,17232 12606,17210 12701,17211 12795,17210 13581,17232 14361,17289 15132,17381 15892,17508 16640,17668 17372,17862 18086,18089 18779,18349 19449,18640 20088,18960 20695,19308 21267,19683 21794,20077 22043,20282 22283,20493 22513,20710 22734,20933 22944,21160 23143,21393 23326,21624 23498,21858 23659,22095 23808,22336 23946,22579 24073,22826 24188,23075 24291,23326 24380,23575 24459,23825 24525,24078 24580,24332 24623,24587 24655,24843 24674,25101 24681,25359 24683,25400 717,25400 719,25359 Z M 12701,4524 L 12886,4527 13071,4537 13255,4552 13438,4573 13620,4600 13801,4633 13981,4672 14160,4716 14337,4767 14512,4823 14685,4885 14857,4953 15026,5026 15193,5105 15358,5190 15520,5280 15679,5375 15834,5476 15986,5581 16134,5691 16279,5805 16419,5925 16556,6048 16688,6176 16816,6309 16939,6445 17059,6585 17173,6730 17283,6878 17388,7030 17489,7185 17584,7344 17674,7506 17759,7671 17838,7838 17911,8007 17979,8179 18041,8352 18097,8527 18148,8704 18192,8882 18231,9062 18264,9243 18291,9426 18312,9609 18328,9793 18337,9977 18340,10163 18340,10164 18337,10349 18328,10534 18312,10718 18291,10901 18264,11083 18231,11264 18192,11444 18148,11623 18097,11800 18041,11975 17979,12148 17911,12320 17838,12489 17759,12656 17674,12821 17584,12983 17489,13142 17389,13298 17283,13449 17173,13598 17059,13742 16939,13882 16816,14018 16688,14151 16556,14279 16419,14402 16279,14521 16135,14636 15987,14746 15835,14851 15679,14951 15520,15046 15520,15046 15520,15047 15358,15137 15193,15221 15026,15300 14857,15374 14685,15441 14512,15503 14337,15560 14160,15610 13823,15689 13481,15748 13136,15785 12788,15801 12701,15801 12613,15801 12265,15785 11920,15748 11578,15689 11241,15610 11064,15560 10889,15503 10716,15441 10544,15374 10375,15300 10208,15221 10043,15137 9881,15047 9881,15046 9881,15046 9722,14951 9566,14851 9414,14746 9266,14636 9122,14521 8982,14402 8845,14279 8713,14151 8585,14018 8462,13882 8342,13742 8228,13598 8118,13449 8012,13298 7912,13142 7817,12983 7727,12821 7642,12656 7563,12489 7490,12320 7422,12148 7360,11975 7304,11800 7253,11623 7209,11444 7170,11264 7137,11083 7110,10901 7089,10718 7073,10534 7064,10349 7061,10164 7064,9978 7073,9793 7089,9609 7110,9426 7137,9244 7170,9062 7209,8883 7253,8704 7304,8527 7360,8352 7422,8179 7490,8007 7563,7838 7642,7671 7727,7506 7817,7344 7912,7185 8013,7030 8118,6878 8228,6730 8342,6585 8462,6445 8585,6309 8713,6176 8845,6048 8982,5925 9122,5805 9267,5691 9415,5581 9567,5476 9722,5375 9881,5280 10043,5190 10208,5105 10375,5026 10544,4953 10716,4885 10889,4823 11064,4767 11241,4716 11420,4672 11600,4633 11781,4600 11963,4573 12146,4552 12330,4537 12515,4527 12701,4524 Z"/>
        </g>
       </g>
      </g>
     </g>
    </g>
   </g>
  </g>
 </g>
</svg>