<?xml version="1.0" encoding="UTF-8"?>
<!DOCTYPE svg PUBLIC "-//W3C//DTD SVG 1.1//EN" "http://www.w3.org/Graphics/SVG/1.1/DTD/svg11.dtd">
<svg version="1.2" width="215.9mm" height="279.4mm" viewBox="0 0 21590 27940" preserveAspectRatio="xMidYMid" fill-rule="evenodd" stroke-width="28.222" stroke-linejoin="round" xmlns="http://www.w3.org/2000/svg" xmlns:ooo="http://xml.openoffice.org/svg/export" xmlns:xlink="http://www.w3.org/1999/xlink" xmlns:presentation="http://sun.com/xmlns/staroffice/presentation" xmlns:smil="http://www.w3.org/2001/SMIL20/" xmlns:anim="urn:oasis:names:tc:opendocument:xmlns:animation:1.0" xml:space="preserve">
 <defs class="ClipPathGroup">
  <clipPath id="presentation_clip_path" clipPathUnits="userSpaceOnUse">
   <rect x="0" y="0" width="21590" height="27940"/>
  </clipPath>
  <clipPath id="presentation_clip_path_shrink" clipPathUnits="userSpaceOnUse">
   <rect x="21" y="27" width="21547" height="27885"/>
  </clipPath>
 </defs>
 <defs class="TextShapeIndex">
  <g ooo:slide="id1" ooo:id-list="id3 id4 id5 id6 id7 id8 id9 id10 id11 id12 id13 id14 id15 id16 id17 id18 id19 id20 id21 id22 id23 id24 id25 id26 id27 id28 id29 id30 id31 id32 id33 id34 id35 id36 id37 id38 id39 id40 id41 id42 id43 id44 id45 id46 id47 id48 id49 id50 id51 id52 id53 id54 id55 id56 id57 id58 id59 id60 id61 id62 id63 id64 id65 id66 id67 id68 id69 id70 id71 id72 id73 id74 id75 id76 id77 id78 id79 id80 id81 id82 id83 id84 id85 id86 id87 id88 id89 id90 id91 id92 id93 id94 id95 id96 id97 id98 id99 id100 id101 id102 id103 id104 id105 id106 id107 id108 id109 id110 id111 id112 id113 id114 id115 id116"/>
 </defs>
 <defs class="EmbeddedBulletChars">
  <g id="bullet-char-template-57356" transform="scale(0.00048828125,-0.00048828125)">
   <path d="M 580,1141 L 1163,571 580,0 -4,571 580,1141 Z"/>
  </g>
  <g id="bullet-char-template-57354" transform="scale(0.00048828125,-0.00048828125)">
   <path d="M 8,1128 L 1137,1128 1137,0 8,0 8,1128 Z"/>
  </g>
  <g id="bullet-char-template-10146" transform="scale(0.00048828125,-0.00048828125)">
   <path d="M 174,0 L 602,739 174,1481 1456,739 174,0 Z M 1358,739 L 309,1346 659,739 1358,739 Z"/>
  </g>
  <g id="bullet-char-template-10132" transform="scale(0.00048828125,-0.00048828125)">
   <path d="M 2015,739 L 1276,0 717,0 1260,543 174,543 174,936 1260,936 717,1481 1274,1481 2015,739 Z"/>
  </g>
  <g id="bullet-char-template-10007" transform="scale(0.00048828125,-0.00048828125)">
   <path d="M 0,-2 C -7,14 -16,27 -25,37 L 356,567 C 262,823 215,952 215,954 215,979 228,992 255,992 264,992 276,990 289,987 310,991 331,999 354,1012 L 381,999 492,748 772,1049 836,1024 860,1049 C 881,1039 901,1025 922,1006 886,937 835,863 770,784 769,783 710,716 594,584 L 774,223 C 774,196 753,168 711,139 L 727,119 C 717,90 699,76 672,76 641,76 570,178 457,381 L 164,-76 C 142,-110 111,-127 72,-127 30,-127 9,-110 8,-76 1,-67 -2,-52 -2,-32 -2,-23 -1,-13 0,-2 Z"/>
  </g>
  <g id="bullet-char-template-10004" transform="scale(0.00048828125,-0.00048828125)">
   <path d="M 285,-33 C 182,-33 111,30 74,156 52,228 41,333 41,471 41,549 55,616 82,672 116,743 169,778 240,778 293,778 328,747 346,684 L 369,508 C 377,444 397,411 428,410 L 1163,1116 C 1174,1127 1196,1133 1229,1133 1271,1133 1292,1118 1292,1087 L 1292,965 C 1292,929 1282,901 1262,881 L 442,47 C 390,-6 338,-33 285,-33 Z"/>
  </g>
  <g id="bullet-char-template-9679" transform="scale(0.00048828125,-0.00048828125)">
   <path d="M 813,0 C 632,0 489,54 383,161 276,268 223,411 223,592 223,773 276,916 383,1023 489,1130 632,1184 813,1184 992,1184 1136,1130 1245,1023 1353,916 1407,772 1407,592 1407,412 1353,268 1245,161 1136,54 992,0 813,0 Z"/>
  </g>
  <g id="bullet-char-template-8226" transform="scale(0.00048828125,-0.00048828125)">
   <path d="M 346,457 C 273,457 209,483 155,535 101,586 74,649 74,723 74,796 101,859 155,911 209,963 273,989 346,989 419,989 480,963 531,910 582,859 608,796 608,723 608,648 583,586 532,535 482,483 420,457 346,457 Z"/>
  </g>
  <g id="bullet-char-template-8211" transform="scale(0.00048828125,-0.00048828125)">
   <path d="M -4,459 L 1135,459 1135,606 -4,606 -4,459 Z"/>
  </g>
  <g id="bullet-char-template-61548" transform="scale(0.00048828125,-0.00048828125)">
   <path d="M 173,740 C 173,903 231,1043 346,1159 462,1274 601,1332 765,1332 928,1332 1067,1274 1183,1159 1299,1043 1357,903 1357,740 1357,577 1299,437 1183,322 1067,206 928,148 765,148 601,148 462,206 346,322 231,437 173,577 173,740 Z"/>
  </g>
 </defs>
 <g>
  <g id="id2" class="Master_Slide">
   <g id="bg-id2" class="Background"/>
   <g id="bo-id2" class="BackgroundObjects"/>
  </g>
 </g>
 <g class="SlideGroup">
  <g>
   <g id="container-id1">
    <g id="id1" class="Slide" clip-path="url(#presentation_clip_path)">
     <g class="Page">
      <g class="com.sun.star.drawing.PolyPolygonShape">
       <g id="id3">
        <rect class="BoundingBox" stroke="none" fill="none" x="10423" y="-5133" width="1060" height="4234"/>
        <path fill="none" stroke="rgb(0,0,0)" stroke-width="106" stroke-linejoin="round" d="M 10477,-5080 L 11112,-5080 11429,-5080 11429,-953 10477,-953 10477,-5080 Z"/>
       </g>
      </g>
      <g class="com.sun.star.drawing.PolyPolygonShape">
       <g id="id4">
        <rect class="BoundingBox" stroke="none" fill="none" x="10424" y="-5134" width="3282" height="4235"/>
        <path fill="none" stroke="rgb(0,0,0)" stroke-width="106" stroke-linejoin="round" d="M 11429,-953 L 10477,-953 12699,-5080 13652,-5080 11429,-953 Z"/>
       </g>
      </g>
      <g class="com.sun.star.drawing.PolyPolygonShape">
       <g id="id5">
        <rect class="BoundingBox" stroke="none" fill="none" x="12625" y="-5132" width="1059" height="4234"/>
        <path fill="none" stroke="rgb(0,0,0)" stroke-width="106" stroke-linejoin="round" d="M 12678,-5079 L 13313,-5079 13630,-5079 13630,-952 12678,-952 12678,-5079 Z"/>
       </g>
      </g>
      <g class="com.sun.star.drawing.PolyPolygonShape">
       <g id="id6">
        <rect class="BoundingBox" stroke="none" fill="none" x="12625" y="-5133" width="3282" height="4235"/>
        <path fill="none" stroke="rgb(0,0,0)" stroke-width="106" stroke-linejoin="round" d="M 13630,-952 L 12678,-952 14900,-5079 15853,-5079 13630,-952 Z"/>
       </g>
      </g>
      <g class="com.sun.star.drawing.PolyPolygonShape">
       <g id="id7">
        <rect class="BoundingBox" stroke="none" fill="none" x="14525" y="-5134" width="3282" height="4235"/>
        <path fill="none" stroke="rgb(0,0,0)" stroke-width="106" stroke-linejoin="round" d="M 15530,-953 L 14578,-953 16800,-5080 17753,-5080 15530,-953 Z"/>
       </g>
      </g>
      <g class="com.sun.star.drawing.PolyPolygonShape">
       <g id="id8">
        <rect class="BoundingBox" stroke="none" fill="none" x="16725" y="-5132" width="1060" height="4234"/>
        <path fill="none" stroke="rgb(0,0,0)" stroke-width="106" stroke-linejoin="round" d="M 16779,-5079 L 17414,-5079 17731,-5079 17731,-952 16779,-952 16779,-5079 Z"/>
       </g>
      </g>
      <g class="com.sun.star.drawing.PolyPolygonShape">
       <g id="id9">
        <rect class="BoundingBox" stroke="none" fill="none" x="17724" y="-5134" width="3282" height="4235"/>
        <path fill="none" stroke="rgb(0,0,0)" stroke-width="106" stroke-linejoin="round" d="M 18729,-953 L 17777,-953 19999,-5080 20952,-5080 18729,-953 Z"/>
       </g>
      </g>
      <g class="com.sun.star.drawing.PolyPolygonShape">
       <g id="id10">
        <rect class="BoundingBox" stroke="none" fill="none" x="19925" y="-5132" width="1059" height="4234"/>
        <path fill="none" stroke="rgb(0,0,0)" stroke-width="106" stroke-linejoin="round" d="M 19978,-5079 L 20613,-5079 20930,-5079 20930,-952 19978,-952 19978,-5079 Z"/>
       </g>
      </g>
      <g class="com.sun.star.drawing.PolyPolygonShape">
       <g id="id11">
        <rect class="BoundingBox" stroke="none" fill="none" x="19925" y="-5133" width="3282" height="4235"/>
        <path fill="none" stroke="rgb(0,0,0)" stroke-width="106" stroke-linejoin="round" d="M 20930,-952 L 19978,-952 22200,-5079 23153,-5079 20930,-952 Z"/>
       </g>
      </g>
      <g class="com.sun.star.drawing.PolyPolygonShape">
       <g id="id12">
        <rect class="BoundingBox" stroke="none" fill="none" x="21926" y="-3588" width="2445" height="2690"/>
        <path fill="none" stroke="rgb(0,0,0)" stroke-width="106" stroke-linejoin="round" d="M 22931,-952 L 21979,-952 23364,-3534 24317,-3535 22931,-952 Z"/>
       </g>
      </g>
      <g class="com.sun.star.drawing.PolyPolygonShape">
       <g id="id13">
        <rect class="BoundingBox" stroke="none" fill="none" x="24027" y="-5132" width="3283" height="4235"/>
        <path fill="none" stroke="rgb(0,0,0)" stroke-width="106" stroke-linejoin="round" d="M 25032,-951 L 24080,-951 26302,-5078 27255,-5078 25032,-951 Z"/>
       </g>
      </g>
      <g class="com.sun.star.drawing.PolyPolygonShape">
       <g id="id14">
        <rect class="BoundingBox" stroke="none" fill="none" x="23628" y="-5131" width="1581" height="1057"/>
        <path fill="none" stroke="rgb(0,0,0)" stroke-width="106" stroke-linejoin="round" d="M 24634,-4128 L 23682,-4128 24202,-5078 25155,-5078 24634,-4128 Z"/>
       </g>
      </g>
      <g class="com.sun.star.drawing.PolyPolygonShape">
       <g id="id15">
        <rect class="BoundingBox" stroke="none" fill="none" x="25928" y="-5131" width="3283" height="4235"/>
        <path fill="none" stroke="rgb(0,0,0)" stroke-width="106" stroke-linejoin="round" d="M 26933,-950 L 25981,-950 28203,-5077 29156,-5077 26933,-950 Z"/>
       </g>
      </g>
      <g class="com.sun.star.drawing.PolyPolygonShape">
       <g id="id16">
        <rect class="BoundingBox" stroke="none" fill="none" x="27826" y="-5134" width="3282" height="4235"/>
        <path fill="none" stroke="rgb(0,0,0)" stroke-width="106" stroke-linejoin="round" d="M 28831,-953 L 27879,-953 30101,-5080 31054,-5080 28831,-953 Z"/>
       </g>
      </g>
      <g class="com.sun.star.drawing.PolyPolygonShape">
       <g id="id17">
        <rect class="BoundingBox" stroke="none" fill="none" x="30026" y="-5132" width="1060" height="4234"/>
        <path fill="none" stroke="rgb(0,0,0)" stroke-width="106" stroke-linejoin="round" d="M 30080,-5079 L 30715,-5079 31032,-5079 31032,-952 30080,-952 30080,-5079 Z"/>
       </g>
      </g>
      <g class="com.sun.star.drawing.PolyPolygonShape">
       <g id="id18">
        <rect class="BoundingBox" stroke="none" fill="none" x="10423" y="-5133" width="1060" height="4234"/>
        <path fill="none" stroke="rgb(0,0,0)" stroke-width="106" stroke-linejoin="round" d="M 10477,-5080 L 11112,-5080 11429,-5080 11429,-953 10477,-953 10477,-5080 Z"/>
       </g>
      </g>
      <g class="com.sun.star.drawing.PolyPolygonShape">
       <g id="id19">
        <rect class="BoundingBox" stroke="none" fill="none" x="10424" y="-5134" width="3282" height="4235"/>
        <path fill="none" stroke="rgb(0,0,0)" stroke-width="106" stroke-linejoin="round" d="M 11429,-953 L 10477,-953 12699,-5080 13652,-5080 11429,-953 Z"/>
       </g>
      </g>
      <g class="com.sun.star.drawing.PolyPolygonShape">
       <g id="id20">
        <rect class="BoundingBox" stroke="none" fill="none" x="12625" y="-5132" width="1059" height="4234"/>
        <path fill="none" stroke="rgb(0,0,0)" stroke-width="106" stroke-linejoin="round" d="M 12678,-5079 L 13313,-5079 13630,-5079 13630,-952 12678,-952 12678,-5079 Z"/>
       </g>
      </g>
      <g class="com.sun.star.drawing.PolyPolygonShape">
       <g id="id21">
        <rect class="BoundingBox" stroke="none" fill="none" x="12625" y="-5133" width="3282" height="4235"/>
        <path fill="none" stroke="rgb(0,0,0)" stroke-width="106" stroke-linejoin="round" d="M 13630,-952 L 12678,-952 14900,-5079 15853,-5079 13630,-952 Z"/>
       </g>
      </g>
      <g class="com.sun.star.drawing.PolyPolygonShape">
       <g id="id22">
        <rect class="BoundingBox" stroke="none" fill="none" x="14525" y="-5134" width="3282" height="4235"/>
        <path fill="none" stroke="rgb(0,0,0)" stroke-width="106" stroke-linejoin="round" d="M 15530,-953 L 14578,-953 16800,-5080 17753,-5080 15530,-953 Z"/>
       </g>
      </g>
      <g class="com.sun.star.drawing.PolyPolygonShape">
       <g id="id23">
        <rect class="BoundingBox" stroke="none" fill="none" x="16725" y="-5132" width="1060" height="4234"/>
        <path fill="none" stroke="rgb(0,0,0)" stroke-width="106" stroke-linejoin="round" d="M 16779,-5079 L 17414,-5079 17731,-5079 17731,-952 16779,-952 16779,-5079 Z"/>
       </g>
      </g>
      <g class="com.sun.star.drawing.PolyPolygonShape">
       <g id="id24">
        <rect class="BoundingBox" stroke="none" fill="none" x="17724" y="-5134" width="3282" height="4235"/>
        <path fill="none" stroke="rgb(0,0,0)" stroke-width="106" stroke-linejoin="round" d="M 18729,-953 L 17777,-953 19999,-5080 20952,-5080 18729,-953 Z"/>
       </g>
      </g>
      <g class="com.sun.star.drawing.PolyPolygonShape">
       <g id="id25">
        <rect class="BoundingBox" stroke="none" fill="none" x="19925" y="-5132" width="1059" height="4234"/>
        <path fill="none" stroke="rgb(0,0,0)" stroke-width="106" stroke-linejoin="round" d="M 19978,-5079 L 20613,-5079 20930,-5079 20930,-952 19978,-952 19978,-5079 Z"/>
       </g>
      </g>
      <g class="com.sun.star.drawing.PolyPolygonShape">
       <g id="id26">
        <rect class="BoundingBox" stroke="none" fill="none" x="19925" y="-5133" width="3282" height="4235"/>
        <path fill="none" stroke="rgb(0,0,0)" stroke-width="106" stroke-linejoin="round" d="M 20930,-952 L 19978,-952 22200,-5079 23153,-5079 20930,-952 Z"/>
       </g>
      </g>
      <g class="com.sun.star.drawing.PolyPolygonShape">
       <g id="id27">
        <rect class="BoundingBox" stroke="none" fill="none" x="21926" y="-3588" width="2445" height="2690"/>
        <path fill="none" stroke="rgb(0,0,0)" stroke-width="106" stroke-linejoin="round" d="M 22931,-952 L 21979,-952 23364,-3534 24317,-3535 22931,-952 Z"/>
       </g>
      </g>
      <g class="com.sun.star.drawing.PolyPolygonShape">
       <g id="id28">
        <rect class="BoundingBox" stroke="none" fill="none" x="24027" y="-5132" width="3283" height="4235"/>
        <path fill="none" stroke="rgb(0,0,0)" stroke-width="106" stroke-linejoin="round" d="M 25032,-951 L 24080,-951 26302,-5078 27255,-5078 25032,-951 Z"/>
       </g>
      </g>
      <g class="com.sun.star.drawing.PolyPolygonShape">
       <g id="id29">
        <rect class="BoundingBox" stroke="none" fill="none" x="23628" y="-5131" width="1581" height="1057"/>
        <path fill="none" stroke="rgb(0,0,0)" stroke-width="106" stroke-linejoin="round" d="M 24634,-4128 L 23682,-4128 24202,-5078 25155,-5078 24634,-4128 Z"/>
       </g>
      </g>
      <g class="com.sun.star.drawing.PolyPolygonShape">
       <g id="id30">
        <rect class="BoundingBox" stroke="none" fill="none" x="25928" y="-5131" width="3283" height="4235"/>
        <path fill="none" stroke="rgb(0,0,0)" stroke-width="106" stroke-linejoin="round" d="M 26933,-950 L 25981,-950 28203,-5077 29156,-5077 26933,-950 Z"/>
       </g>
      </g>
      <g class="com.sun.star.drawing.PolyPolygonShape">
       <g id="id31">
        <rect class="BoundingBox" stroke="none" fill="none" x="27826" y="-5134" width="3282" height="4235"/>
        <path fill="none" stroke="rgb(0,0,0)" stroke-width="106" stroke-linejoin="round" d="M 28831,-953 L 27879,-953 30101,-5080 31054,-5080 28831,-953 Z"/>
       </g>
      </g>
      <g class="com.sun.star.drawing.PolyPolygonShape">
       <g id="id32">
        <rect class="BoundingBox" stroke="none" fill="none" x="30026" y="-5132" width="1060" height="4234"/>
        <path fill="none" stroke="rgb(0,0,0)" stroke-width="106" stroke-linejoin="round" d="M 30080,-5079 L 30715,-5079 31032,-5079 31032,-952 30080,-952 30080,-5079 Z"/>
       </g>
      </g>
      <g class="com.sun.star.drawing.CustomShape">
       <g id="id33">
        <rect class="BoundingBox" stroke="none" fill="none" x="847" y="591" width="1060" height="4553"/>
        <path fill="rgb(114,159,207)" stroke="none" d="M 900,644 L 1853,644 1853,5090 900,5090 900,644 Z"/>
        <path fill="none" stroke="rgb(0,0,0)" stroke-width="106" stroke-linejoin="round" d="M 900,644 L 1853,644 1853,5090 900,5090 900,644 Z"/>
       </g>
      </g>
      <g class="com.sun.star.drawing.CustomShape">
       <g id="id34">
        <rect class="BoundingBox" stroke="none" fill="none" x="2849" y="591" width="1060" height="4553"/>
        <path fill="rgb(114,159,207)" stroke="none" d="M 2902,644 L 3855,644 3855,5090 2902,5090 2902,644 Z"/>
        <path fill="none" stroke="rgb(0,0,0)" stroke-width="106" stroke-linejoin="round" d="M 2902,644 L 3855,644 3855,5090 2902,5090 2902,644 Z"/>
       </g>
      </g>
      <g class="com.sun.star.drawing.CustomShape">
       <g id="id35">
        <rect class="BoundingBox" stroke="none" fill="none" x="4851" y="591" width="3054" height="4553"/>
        <path fill="none" stroke="rgb(0,0,0)" stroke-width="106" stroke-linejoin="round" d="M 6907,644 L 7851,644 5848,5090 4904,5090 6907,644 Z"/>
       </g>
      </g>
      <g class="com.sun.star.drawing.CustomShape">
       <g id="id36">
        <rect class="BoundingBox" stroke="none" fill="none" x="6853" y="591" width="1060" height="4553"/>
        <path fill="none" stroke="rgb(0,0,0)" stroke-width="106" stroke-linejoin="round" d="M 6906,644 L 7859,644 7859,5090 6906,5090 6906,644 Z"/>
       </g>
      </g>
      <g class="com.sun.star.drawing.CustomShape">
       <g id="id37">
        <rect class="BoundingBox" stroke="none" fill="none" x="7854" y="591" width="3055" height="4553"/>
        <path fill="none" stroke="rgb(0,0,0)" stroke-width="106" stroke-linejoin="round" d="M 9909,644 L 10854,644 8851,5090 7907,5090 9909,644 Z"/>
       </g>
      </g>
      <g class="com.sun.star.drawing.CustomShape">
       <g id="id38">
        <rect class="BoundingBox" stroke="none" fill="none" x="9855" y="591" width="1061" height="4553"/>
        <path fill="none" stroke="rgb(0,0,0)" stroke-width="106" stroke-linejoin="round" d="M 9908,644 L 10861,644 10861,5090 9908,5090 9908,644 Z"/>
       </g>
      </g>
      <g class="com.sun.star.drawing.CustomShape">
       <g id="id39">
        <rect class="BoundingBox" stroke="none" fill="none" x="13858" y="591" width="3055" height="4553"/>
        <path fill="none" stroke="rgb(0,0,0)" stroke-width="106" stroke-linejoin="round" d="M 15913,644 L 16858,644 14855,5090 13911,5090 15913,644 Z"/>
       </g>
      </g>
      <g class="com.sun.star.drawing.CustomShape">
       <g id="id40">
        <rect class="BoundingBox" stroke="none" fill="none" x="19863" y="591" width="1061" height="4553"/>
        <path fill="none" stroke="rgb(0,0,0)" stroke-width="106" stroke-linejoin="round" d="M 19916,644 L 20869,644 20869,5090 19916,5090 19916,644 Z"/>
       </g>
      </g>
      <g class="com.sun.star.drawing.CustomShape">
       <g id="id41">
        <rect class="BoundingBox" stroke="none" fill="none" x="846" y="591" width="3063" height="4553"/>
        <path fill="rgb(114,159,207)" stroke="none" d="M 2903,644 L 3855,644 1851,5090 899,5090 2903,644 Z"/>
        <path fill="none" stroke="rgb(0,0,0)" stroke-width="106" stroke-linejoin="round" d="M 2903,644 L 3855,644 1851,5090 899,5090 2903,644 Z"/>
       </g>
      </g>
      <g class="com.sun.star.drawing.CustomShape">
       <g id="id42">
        <rect class="BoundingBox" stroke="none" fill="none" x="2852" y="591" width="3054" height="4553"/>
        <path fill="rgb(114,159,207)" stroke="none" d="M 4905,644 L 5852,644 3852,5090 2905,5090 4905,644 Z"/>
        <path fill="none" stroke="rgb(0,0,0)" stroke-width="106" stroke-linejoin="round" d="M 4905,644 L 5852,644 3852,5090 2905,5090 4905,644 Z"/>
       </g>
      </g>
      <g class="com.sun.star.drawing.CustomShape">
       <g id="id43">
        <rect class="BoundingBox" stroke="none" fill="none" x="9856" y="591" width="3055" height="4553"/>
        <path fill="none" stroke="rgb(0,0,0)" stroke-width="106" stroke-linejoin="round" d="M 11910,644 L 12856,644 10855,5090 9909,5090 11910,644 Z"/>
       </g>
      </g>
      <g class="com.sun.star.drawing.PolyPolygonShape">
       <g id="id44">
        <rect class="BoundingBox" stroke="none" fill="none" x="11856" y="592" width="3055" height="4528"/>
        <path fill="none" stroke="rgb(0,0,0)" stroke-width="106" stroke-linejoin="round" d="M 14137,2231 L 12853,5066 11909,5066 13193,2231 14137,2231 Z"/>
        <path fill="none" stroke="rgb(0,0,0)" stroke-width="106" stroke-linejoin="round" d="M 13481,1596 L 13912,645 14856,645 14425,1596 13481,1596 Z"/>
       </g>
      </g>
      <g class="com.sun.star.drawing.CustomShape">
       <g id="id45">
        <rect class="BoundingBox" stroke="none" fill="none" x="15859" y="591" width="3055" height="4553"/>
        <path fill="none" stroke="rgb(0,0,0)" stroke-width="106" stroke-linejoin="round" d="M 17914,644 L 18859,644 16856,5090 15912,5090 17914,644 Z"/>
       </g>
      </g>
      <g class="com.sun.star.drawing.CustomShape">
       <g id="id46">
        <rect class="BoundingBox" stroke="none" fill="none" x="17852" y="591" width="3055" height="4553"/>
        <path fill="none" stroke="rgb(0,0,0)" stroke-width="106" stroke-linejoin="round" d="M 19908,644 L 20852,644 18849,5090 17905,5090 19908,644 Z"/>
       </g>
      </g>
      <g class="com.sun.star.drawing.CustomShape">
       <g id="id47">
        <rect class="BoundingBox" stroke="none" fill="none" x="847" y="5038" width="1060" height="4553"/>
        <path fill="none" stroke="rgb(0,0,0)" stroke-width="106" stroke-linejoin="round" d="M 900,5091 L 1853,5091 1853,9537 900,9537 900,5091 Z"/>
       </g>
      </g>
      <g class="com.sun.star.drawing.CustomShape">
       <g id="id48">
        <rect class="BoundingBox" stroke="none" fill="none" x="2849" y="5038" width="1060" height="4553"/>
        <path fill="none" stroke="rgb(0,0,0)" stroke-width="106" stroke-linejoin="round" d="M 2902,5091 L 3855,5091 3855,9537 2902,9537 2902,5091 Z"/>
       </g>
      </g>
      <g class="com.sun.star.drawing.CustomShape">
       <g id="id49">
        <rect class="BoundingBox" stroke="none" fill="none" x="4851" y="5038" width="3054" height="4553"/>
        <path fill="rgb(114,159,207)" stroke="none" d="M 6907,5091 L 7851,5091 5848,9537 4904,9537 6907,5091 Z"/>
        <path fill="none" stroke="rgb(0,0,0)" stroke-width="106" stroke-linejoin="round" d="M 6907,5091 L 7851,5091 5848,9537 4904,9537 6907,5091 Z"/>
       </g>
      </g>
      <g class="com.sun.star.drawing.CustomShape">
       <g id="id50">
        <rect class="BoundingBox" stroke="none" fill="none" x="6853" y="5038" width="1061" height="4553"/>
        <path fill="rgb(114,159,207)" stroke="none" d="M 6906,5091 L 7859,5091 7859,9537 6906,9537 6906,5091 Z"/>
        <path fill="none" stroke="rgb(0,0,0)" stroke-width="106" stroke-linejoin="round" d="M 6906,5091 L 7859,5091 7859,9537 6906,9537 6906,5091 Z"/>
       </g>
      </g>
      <g class="com.sun.star.drawing.CustomShape">
       <g id="id51">
        <rect class="BoundingBox" stroke="none" fill="none" x="7854" y="5038" width="3055" height="4553"/>
        <path fill="none" stroke="rgb(0,0,0)" stroke-width="106" stroke-linejoin="round" d="M 9909,5091 L 10854,5091 8851,9537 7907,9537 9909,5091 Z"/>
       </g>
      </g>
      <g class="com.sun.star.drawing.CustomShape">
       <g id="id52">
        <rect class="BoundingBox" stroke="none" fill="none" x="9855" y="5038" width="1060" height="4553"/>
        <path fill="none" stroke="rgb(0,0,0)" stroke-width="106" stroke-linejoin="round" d="M 9908,5091 L 10861,5091 10861,9537 9908,9537 9908,5091 Z"/>
       </g>
      </g>
      <g class="com.sun.star.drawing.CustomShape">
       <g id="id53">
        <rect class="BoundingBox" stroke="none" fill="none" x="13858" y="5038" width="3054" height="4553"/>
        <path fill="none" stroke="rgb(0,0,0)" stroke-width="106" stroke-linejoin="round" d="M 15913,5091 L 16858,5091 14855,9537 13911,9537 15913,5091 Z"/>
       </g>
      </g>
      <g class="com.sun.star.drawing.CustomShape">
       <g id="id54">
        <rect class="BoundingBox" stroke="none" fill="none" x="19863" y="5038" width="1060" height="4553"/>
        <path fill="none" stroke="rgb(0,0,0)" stroke-width="106" stroke-linejoin="round" d="M 19916,5091 L 20869,5091 20869,9537 19916,9537 19916,5091 Z"/>
       </g>
      </g>
      <g class="com.sun.star.drawing.CustomShape">
       <g id="id55">
        <rect class="BoundingBox" stroke="none" fill="none" x="846" y="5038" width="3063" height="4553"/>
        <path fill="none" stroke="rgb(0,0,0)" stroke-width="106" stroke-linejoin="round" d="M 2903,5091 L 3855,5091 1851,9537 899,9537 2903,5091 Z"/>
       </g>
      </g>
      <g class="com.sun.star.drawing.CustomShape">
       <g id="id56">
        <rect class="BoundingBox" stroke="none" fill="none" x="2852" y="5038" width="3054" height="4553"/>
        <path fill="none" stroke="rgb(0,0,0)" stroke-width="106" stroke-linejoin="round" d="M 4905,5091 L 5852,5091 3852,9537 2905,9537 4905,5091 Z"/>
       </g>
      </g>
      <g class="com.sun.star.drawing.CustomShape">
       <g id="id57">
        <rect class="BoundingBox" stroke="none" fill="none" x="9856" y="5038" width="3054" height="4553"/>
        <path fill="none" stroke="rgb(0,0,0)" stroke-width="106" stroke-linejoin="round" d="M 11910,5091 L 12856,5091 10855,9537 9909,9537 11910,5091 Z"/>
       </g>
      </g>
      <g class="com.sun.star.drawing.PolyPolygonShape">
       <g id="id58">
        <rect class="BoundingBox" stroke="none" fill="none" x="11856" y="5039" width="3054" height="4529"/>
        <path fill="none" stroke="rgb(0,0,0)" stroke-width="106" stroke-linejoin="round" d="M 14137,6678 L 12853,9513 11909,9513 13193,6678 14137,6678 Z"/>
        <path fill="none" stroke="rgb(0,0,0)" stroke-width="106" stroke-linejoin="round" d="M 13481,6043 L 13912,5092 14856,5092 14425,6043 13481,6043 Z"/>
       </g>
      </g>
      <g class="com.sun.star.drawing.CustomShape">
       <g id="id59">
        <rect class="BoundingBox" stroke="none" fill="none" x="15859" y="5038" width="3054" height="4553"/>
        <path fill="none" stroke="rgb(0,0,0)" stroke-width="106" stroke-linejoin="round" d="M 17914,5091 L 18859,5091 16856,9537 15912,9537 17914,5091 Z"/>
       </g>
      </g>
      <g class="com.sun.star.drawing.CustomShape">
       <g id="id60">
        <rect class="BoundingBox" stroke="none" fill="none" x="17852" y="5038" width="3054" height="4553"/>
        <path fill="none" stroke="rgb(0,0,0)" stroke-width="106" stroke-linejoin="round" d="M 19908,5091 L 20852,5091 18849,9537 17905,9537 19908,5091 Z"/>
       </g>
      </g>
      <g class="com.sun.star.drawing.CustomShape">
       <g id="id61">
        <rect class="BoundingBox" stroke="none" fill="none" x="847" y="9491" width="1060" height="4553"/>
        <path fill="none" stroke="rgb(0,0,0)" stroke-width="106" stroke-linejoin="round" d="M 900,9544 L 1853,9544 1853,13990 900,13990 900,9544 Z"/>
       </g>
      </g>
      <g class="com.sun.star.drawing.CustomShape">
       <g id="id62">
        <rect class="BoundingBox" stroke="none" fill="none" x="2849" y="9491" width="1060" height="4553"/>
        <path fill="none" stroke="rgb(0,0,0)" stroke-width="106" stroke-linejoin="round" d="M 2902,9544 L 3855,9544 3855,13990 2902,13990 2902,9544 Z"/>
       </g>
      </g>
      <g class="com.sun.star.drawing.CustomShape">
       <g id="id63">
        <rect class="BoundingBox" stroke="none" fill="none" x="4851" y="9491" width="3054" height="4553"/>
        <path fill="none" stroke="rgb(0,0,0)" stroke-width="106" stroke-linejoin="round" d="M 6907,9544 L 7851,9544 5848,13990 4904,13990 6907,9544 Z"/>
       </g>
      </g>
      <g class="com.sun.star.drawing.CustomShape">
       <g id="id64">
        <rect class="BoundingBox" stroke="none" fill="none" x="6853" y="9491" width="1061" height="4553"/>
        <path fill="none" stroke="rgb(0,0,0)" stroke-width="106" stroke-linejoin="round" d="M 6906,9544 L 7859,9544 7859,13990 6906,13990 6906,9544 Z"/>
       </g>
      </g>
      <g class="com.sun.star.drawing.CustomShape">
       <g id="id65">
        <rect class="BoundingBox" stroke="none" fill="none" x="7854" y="9491" width="3055" height="4554"/>
        <path fill="rgb(114,159,207)" stroke="none" d="M 9909,9544 L 10854,9544 8851,13990 7907,13990 9909,9544 Z"/>
        <path fill="none" stroke="rgb(0,0,0)" stroke-width="106" stroke-linejoin="round" d="M 9909,9544 L 10854,9544 8851,13990 7907,13990 9909,9544 Z"/>
       </g>
      </g>
      <g class="com.sun.star.drawing.CustomShape">
       <g id="id66">
        <rect class="BoundingBox" stroke="none" fill="none" x="9855" y="9491" width="1060" height="4554"/>
        <path fill="rgb(114,159,207)" stroke="none" d="M 9908,9544 L 10861,9544 10861,13990 9908,13990 9908,9544 Z"/>
        <path fill="none" stroke="rgb(0,0,0)" stroke-width="106" stroke-linejoin="round" d="M 9908,9544 L 10861,9544 10861,13990 9908,13990 9908,9544 Z"/>
       </g>
      </g>
      <g class="com.sun.star.drawing.CustomShape">
       <g id="id67">
        <rect class="BoundingBox" stroke="none" fill="none" x="13858" y="9491" width="3054" height="4553"/>
        <path fill="none" stroke="rgb(0,0,0)" stroke-width="106" stroke-linejoin="round" d="M 15913,9544 L 16858,9544 14855,13990 13911,13990 15913,9544 Z"/>
       </g>
      </g>
      <g class="com.sun.star.drawing.CustomShape">
       <g id="id68">
        <rect class="BoundingBox" stroke="none" fill="none" x="19863" y="9491" width="1060" height="4553"/>
        <path fill="none" stroke="rgb(0,0,0)" stroke-width="106" stroke-linejoin="round" d="M 19916,9544 L 20869,9544 20869,13990 19916,13990 19916,9544 Z"/>
       </g>
      </g>
      <g class="com.sun.star.drawing.CustomShape">
       <g id="id69">
        <rect class="BoundingBox" stroke="none" fill="none" x="846" y="9491" width="3063" height="4553"/>
        <path fill="none" stroke="rgb(0,0,0)" stroke-width="106" stroke-linejoin="round" d="M 2903,9544 L 3855,9544 1851,13990 899,13990 2903,9544 Z"/>
       </g>
      </g>
      <g class="com.sun.star.drawing.CustomShape">
       <g id="id70">
        <rect class="BoundingBox" stroke="none" fill="none" x="2852" y="9491" width="3054" height="4553"/>
        <path fill="none" stroke="rgb(0,0,0)" stroke-width="106" stroke-linejoin="round" d="M 4905,9544 L 5852,9544 3852,13990 2905,13990 4905,9544 Z"/>
       </g>
      </g>
      <g class="com.sun.star.drawing.CustomShape">
       <g id="id71">
        <rect class="BoundingBox" stroke="none" fill="none" x="9856" y="9491" width="3054" height="4554"/>
        <path fill="rgb(114,159,207)" stroke="none" d="M 11910,9544 L 12856,9544 10855,13990 9909,13990 11910,9544 Z"/>
        <path fill="none" stroke="rgb(0,0,0)" stroke-width="106" stroke-linejoin="round" d="M 11910,9544 L 12856,9544 10855,13990 9909,13990 11910,9544 Z"/>
       </g>
      </g>
      <g class="com.sun.star.drawing.PolyPolygonShape">
       <g id="id72">
        <rect class="BoundingBox" stroke="none" fill="none" x="11856" y="9492" width="3055" height="4528"/>
        <path fill="none" stroke="rgb(0,0,0)" stroke-width="106" stroke-linejoin="round" d="M 14137,11131 L 12853,13966 11909,13966 13193,11131 14137,11131 Z"/>
        <path fill="none" stroke="rgb(0,0,0)" stroke-width="106" stroke-linejoin="round" d="M 13481,10496 L 13912,9545 14856,9545 14425,10496 13481,10496 Z"/>
       </g>
      </g>
      <g class="com.sun.star.drawing.CustomShape">
       <g id="id73">
        <rect class="BoundingBox" stroke="none" fill="none" x="15859" y="9491" width="3054" height="4553"/>
        <path fill="none" stroke="rgb(0,0,0)" stroke-width="106" stroke-linejoin="round" d="M 17914,9544 L 18859,9544 16856,13990 15912,13990 17914,9544 Z"/>
       </g>
      </g>
      <g class="com.sun.star.drawing.CustomShape">
       <g id="id74">
        <rect class="BoundingBox" stroke="none" fill="none" x="17852" y="9491" width="3054" height="4553"/>
        <path fill="none" stroke="rgb(0,0,0)" stroke-width="106" stroke-linejoin="round" d="M 19908,9544 L 20852,9544 18849,13990 17905,13990 19908,9544 Z"/>
       </g>
      </g>
      <g class="com.sun.star.drawing.CustomShape">
       <g id="id75">
        <rect class="BoundingBox" stroke="none" fill="none" x="847" y="13938" width="1060" height="4553"/>
        <path fill="none" stroke="rgb(0,0,0)" stroke-width="106" stroke-linejoin="round" d="M 900,13991 L 1853,13991 1853,18437 900,18437 900,13991 Z"/>
       </g>
      </g>
      <g class="com.sun.star.drawing.CustomShape">
       <g id="id76">
        <rect class="BoundingBox" stroke="none" fill="none" x="2849" y="13938" width="1060" height="4553"/>
        <path fill="none" stroke="rgb(0,0,0)" stroke-width="106" stroke-linejoin="round" d="M 2902,13991 L 3855,13991 3855,18437 2902,18437 2902,13991 Z"/>
       </g>
      </g>
      <g class="com.sun.star.drawing.CustomShape">
       <g id="id77">
        <rect class="BoundingBox" stroke="none" fill="none" x="4851" y="13938" width="3054" height="4553"/>
        <path fill="none" stroke="rgb(0,0,0)" stroke-width="106" stroke-linejoin="round" d="M 6907,13991 L 7851,13991 5848,18437 4904,18437 6907,13991 Z"/>
       </g>
      </g>
      <g class="com.sun.star.drawing.CustomShape">
       <g id="id78">
        <rect class="BoundingBox" stroke="none" fill="none" x="6853" y="13938" width="1061" height="4553"/>
        <path fill="none" stroke="rgb(0,0,0)" stroke-width="106" stroke-linejoin="round" d="M 6906,13991 L 7859,13991 7859,18437 6906,18437 6906,13991 Z"/>
       </g>
      </g>
      <g class="com.sun.star.drawing.CustomShape">
       <g id="id79">
        <rect class="BoundingBox" stroke="none" fill="none" x="7854" y="13938" width="3055" height="4553"/>
        <path fill="none" stroke="rgb(0,0,0)" stroke-width="106" stroke-linejoin="round" d="M 9909,13991 L 10854,13991 8851,18437 7907,18437 9909,13991 Z"/>
       </g>
      </g>
      <g class="com.sun.star.drawing.CustomShape">
       <g id="id80">
        <rect class="BoundingBox" stroke="none" fill="none" x="9855" y="13938" width="1060" height="4553"/>
        <path fill="none" stroke="rgb(0,0,0)" stroke-width="106" stroke-linejoin="round" d="M 9908,13991 L 10861,13991 10861,18437 9908,18437 9908,13991 Z"/>
       </g>
      </g>
      <g class="com.sun.star.drawing.CustomShape">
       <g id="id81">
        <rect class="BoundingBox" stroke="none" fill="none" x="13858" y="13938" width="3054" height="4553"/>
        <path fill="none" stroke="rgb(0,0,0)" stroke-width="106" stroke-linejoin="round" d="M 15913,13991 L 16858,13991 14855,18437 13911,18437 15913,13991 Z"/>
       </g>
      </g>
      <g class="com.sun.star.drawing.CustomShape">
       <g id="id82">
        <rect class="BoundingBox" stroke="none" fill="none" x="19863" y="13938" width="1060" height="4553"/>
        <path fill="none" stroke="rgb(0,0,0)" stroke-width="106" stroke-linejoin="round" d="M 19916,13991 L 20869,13991 20869,18437 19916,18437 19916,13991 Z"/>
       </g>
      </g>
      <g class="com.sun.star.drawing.CustomShape">
       <g id="id83">
        <rect class="BoundingBox" stroke="none" fill="none" x="846" y="13938" width="3063" height="4553"/>
        <path fill="none" stroke="rgb(0,0,0)" stroke-width="106" stroke-linejoin="round" d="M 2903,13991 L 3855,13991 1851,18437 899,18437 2903,13991 Z"/>
       </g>
      </g>
      <g class="com.sun.star.drawing.CustomShape">
       <g id="id84">
        <rect class="BoundingBox" stroke="none" fill="none" x="2852" y="13938" width="3054" height="4553"/>
        <path fill="none" stroke="rgb(0,0,0)" stroke-width="106" stroke-linejoin="round" d="M 4905,13991 L 5852,13991 3852,18437 2905,18437 4905,13991 Z"/>
       </g>
      </g>
      <g class="com.sun.star.drawing.CustomShape">
       <g id="id85">
        <rect class="BoundingBox" stroke="none" fill="none" x="9856" y="13938" width="3054" height="4553"/>
        <path fill="none" stroke="rgb(0,0,0)" stroke-width="106" stroke-linejoin="round" d="M 11910,13991 L 12856,13991 10855,18437 9909,18437 11910,13991 Z"/>
       </g>
      </g>
      <g class="com.sun.star.drawing.PolyPolygonShape">
       <g id="id86">
        <rect class="BoundingBox" stroke="none" fill="none" x="11856" y="13939" width="3054" height="4528"/>
        <path fill="rgb(114,159,207)" stroke="none" d="M 14137,15578 L 12853,18413 11909,18413 13193,15578 14137,15578 Z M 13481,14943 L 13912,13992 14856,13992 14425,14943 13481,14943 Z"/>
        <path fill="none" stroke="rgb(0,0,0)" stroke-width="106" stroke-linejoin="round" d="M 14137,15578 L 12853,18413 11909,18413 13193,15578 14137,15578 Z"/>
        <path fill="none" stroke="rgb(0,0,0)" stroke-width="106" stroke-linejoin="round" d="M 13481,14943 L 13912,13992 14856,13992 14425,14943 13481,14943 Z"/>
       </g>
      </g>
      <g class="com.sun.star.drawing.CustomShape">
       <g id="id87">
        <rect class="BoundingBox" stroke="none" fill="none" x="15859" y="13938" width="3054" height="4553"/>
        <path fill="none" stroke="rgb(0,0,0)" stroke-width="106" stroke-linejoin="round" d="M 17914,13991 L 18859,13991 16856,18437 15912,18437 17914,13991 Z"/>
       </g>
      </g>
      <g class="com.sun.star.drawing.CustomShape">
       <g id="id88">
        <rect class="BoundingBox" stroke="none" fill="none" x="17852" y="13938" width="3054" height="4553"/>
        <path fill="none" stroke="rgb(0,0,0)" stroke-width="106" stroke-linejoin="round" d="M 19908,13991 L 20852,13991 18849,18437 17905,18437 19908,13991 Z"/>
       </g>
      </g>
      <g class="com.sun.star.drawing.CustomShape">
       <g id="id89">
        <rect class="BoundingBox" stroke="none" fill="none" x="847" y="18338" width="1060" height="4553"/>
        <path fill="none" stroke="rgb(0,0,0)" stroke-width="106" stroke-linejoin="round" d="M 900,18391 L 1853,18391 1853,22837 900,22837 900,18391 Z"/>
       </g>
      </g>
      <g class="com.sun.star.drawing.CustomShape">
       <g id="id90">
        <rect class="BoundingBox" stroke="none" fill="none" x="2849" y="18338" width="1060" height="4553"/>
        <path fill="none" stroke="rgb(0,0,0)" stroke-width="106" stroke-linejoin="round" d="M 2902,18391 L 3855,18391 3855,22837 2902,22837 2902,18391 Z"/>
       </g>
      </g>
      <g class="com.sun.star.drawing.CustomShape">
       <g id="id91">
        <rect class="BoundingBox" stroke="none" fill="none" x="4851" y="18338" width="3054" height="4553"/>
        <path fill="none" stroke="rgb(0,0,0)" stroke-width="106" stroke-linejoin="round" d="M 6907,18391 L 7851,18391 5848,22837 4904,22837 6907,18391 Z"/>
       </g>
      </g>
      <g class="com.sun.star.drawing.CustomShape">
       <g id="id92">
        <rect class="BoundingBox" stroke="none" fill="none" x="6853" y="18338" width="1061" height="4553"/>
        <path fill="none" stroke="rgb(0,0,0)" stroke-width="106" stroke-linejoin="round" d="M 6906,18391 L 7859,18391 7859,22837 6906,22837 6906,18391 Z"/>
       </g>
      </g>
      <g class="com.sun.star.drawing.CustomShape">
       <g id="id93">
        <rect class="BoundingBox" stroke="none" fill="none" x="7854" y="18338" width="3055" height="4553"/>
        <path fill="none" stroke="rgb(0,0,0)" stroke-width="106" stroke-linejoin="round" d="M 9909,18391 L 10854,18391 8851,22837 7907,22837 9909,18391 Z"/>
       </g>
      </g>
      <g class="com.sun.star.drawing.CustomShape">
       <g id="id94">
        <rect class="BoundingBox" stroke="none" fill="none" x="9855" y="18338" width="1060" height="4553"/>
        <path fill="none" stroke="rgb(0,0,0)" stroke-width="106" stroke-linejoin="round" d="M 9908,18391 L 10861,18391 10861,22837 9908,22837 9908,18391 Z"/>
       </g>
      </g>
      <g class="com.sun.star.drawing.CustomShape">
       <g id="id95">
        <rect class="BoundingBox" stroke="none" fill="none" x="13858" y="18338" width="3054" height="4553"/>
        <path fill="rgb(114,159,207)" stroke="none" d="M 15913,18391 L 16858,18391 14855,22837 13911,22837 15913,18391 Z"/>
        <path fill="none" stroke="rgb(0,0,0)" stroke-width="106" stroke-linejoin="round" d="M 15913,18391 L 16858,18391 14855,22837 13911,22837 15913,18391 Z"/>
       </g>
      </g>
      <g class="com.sun.star.drawing.CustomShape">
       <g id="id96">
        <rect class="BoundingBox" stroke="none" fill="none" x="19863" y="18338" width="1060" height="4553"/>
        <path fill="none" stroke="rgb(0,0,0)" stroke-width="106" stroke-linejoin="round" d="M 19916,18391 L 20869,18391 20869,22837 19916,22837 19916,18391 Z"/>
       </g>
      </g>
      <g class="com.sun.star.drawing.CustomShape">
       <g id="id97">
        <rect class="BoundingBox" stroke="none" fill="none" x="846" y="18338" width="3063" height="4553"/>
        <path fill="none" stroke="rgb(0,0,0)" stroke-width="106" stroke-linejoin="round" d="M 2903,18391 L 3855,18391 1851,22837 899,22837 2903,18391 Z"/>
       </g>
      </g>
      <g class="com.sun.star.drawing.CustomShape">
       <g id="id98">
        <rect class="BoundingBox" stroke="none" fill="none" x="2852" y="18338" width="3054" height="4553"/>
        <path fill="none" stroke="rgb(0,0,0)" stroke-width="106" stroke-linejoin="round" d="M 4905,18391 L 5852,18391 3852,22837 2905,22837 4905,18391 Z"/>
       </g>
      </g>
      <g class="com.sun.star.drawing.CustomShape">
       <g id="id99">
        <rect class="BoundingBox" stroke="none" fill="none" x="9856" y="18338" width="3054" height="4553"/>
        <path fill="none" stroke="rgb(0,0,0)" stroke-width="106" stroke-linejoin="round" d="M 11910,18391 L 12856,18391 10855,22837 9909,22837 11910,18391 Z"/>
       </g>
      </g>
      <g class="com.sun.star.drawing.PolyPolygonShape">
       <g id="id100">
        <rect class="BoundingBox" stroke="none" fill="none" x="11856" y="18339" width="3054" height="4528"/>
        <path fill="none" stroke="rgb(0,0,0)" stroke-width="106" stroke-linejoin="round" d="M 14137,19978 L 12853,22813 11909,22813 13193,19978 14137,19978 Z"/>
        <path fill="none" stroke="rgb(0,0,0)" stroke-width="106" stroke-linejoin="round" d="M 13481,19343 L 13912,18392 14856,18392 14425,19343 13481,19343 Z"/>
       </g>
      </g>
      <g class="com.sun.star.drawing.CustomShape">
       <g id="id101">
        <rect class="BoundingBox" stroke="none" fill="none" x="15859" y="18338" width="3054" height="4553"/>
        <path fill="rgb(114,159,207)" stroke="none" d="M 17914,18391 L 18859,18391 16856,22837 15912,22837 17914,18391 Z"/>
        <path fill="none" stroke="rgb(0,0,0)" stroke-width="106" stroke-linejoin="round" d="M 17914,18391 L 18859,18391 16856,22837 15912,22837 17914,18391 Z"/>
       </g>
      </g>
      <g class="com.sun.star.drawing.CustomShape">
       <g id="id102">
        <rect class="BoundingBox" stroke="none" fill="none" x="17852" y="18338" width="3054" height="4553"/>
        <path fill="none" stroke="rgb(0,0,0)" stroke-width="106" stroke-linejoin="round" d="M 19908,18391 L 20852,18391 18849,22837 17905,22837 19908,18391 Z"/>
       </g>
      </g>
      <g class="com.sun.star.drawing.CustomShape">
       <g id="id103">
        <rect class="BoundingBox" stroke="none" fill="none" x="847" y="22738" width="1060" height="4553"/>
        <path fill="none" stroke="rgb(0,0,0)" stroke-width="106" stroke-linejoin="round" d="M 900,22791 L 1853,22791 1853,27237 900,27237 900,22791 Z"/>
       </g>
      </g>
      <g class="com.sun.star.drawing.CustomShape">
       <g id="id104">
        <rect class="BoundingBox" stroke="none" fill="none" x="2849" y="22738" width="1060" height="4553"/>
        <path fill="none" stroke="rgb(0,0,0)" stroke-width="106" stroke-linejoin="round" d="M 2902,22791 L 3855,22791 3855,27237 2902,27237 2902,22791 Z"/>
       </g>
      </g>
      <g class="com.sun.star.drawing.CustomShape">
       <g id="id105">
        <rect class="BoundingBox" stroke="none" fill="none" x="4851" y="22738" width="3054" height="4553"/>
        <path fill="none" stroke="rgb(0,0,0)" stroke-width="106" stroke-linejoin="round" d="M 6907,22791 L 7851,22791 5848,27237 4904,27237 6907,22791 Z"/>
       </g>
      </g>
      <g class="com.sun.star.drawing.CustomShape">
       <g id="id106">
        <rect class="BoundingBox" stroke="none" fill="none" x="6853" y="22738" width="1061" height="4553"/>
        <path fill="none" stroke="rgb(0,0,0)" stroke-width="106" stroke-linejoin="round" d="M 6906,22791 L 7859,22791 7859,27237 6906,27237 6906,22791 Z"/>
       </g>
      </g>
      <g class="com.sun.star.drawing.CustomShape">
       <g id="id107">
        <rect class="BoundingBox" stroke="none" fill="none" x="7854" y="22738" width="3055" height="4553"/>
        <path fill="none" stroke="rgb(0,0,0)" stroke-width="106" stroke-linejoin="round" d="M 9909,22791 L 10854,22791 8851,27237 7907,27237 9909,22791 Z"/>
       </g>
      </g>
      <g class="com.sun.star.drawing.CustomShape">
       <g id="id108">
        <rect class="BoundingBox" stroke="none" fill="none" x="9855" y="22738" width="1060" height="4553"/>
        <path fill="none" stroke="rgb(0,0,0)" stroke-width="106" stroke-linejoin="round" d="M 9908,22791 L 10861,22791 10861,27237 9908,27237 9908,22791 Z"/>
       </g>
      </g>
      <g class="com.sun.star.drawing.CustomShape">
       <g id="id109">
        <rect class="BoundingBox" stroke="none" fill="none" x="13858" y="22738" width="3054" height="4553"/>
        <path fill="none" stroke="rgb(0,0,0)" stroke-width="106" stroke-linejoin="round" d="M 15913,22791 L 16858,22791 14855,27237 13911,27237 15913,22791 Z"/>
       </g>
      </g>
      <g class="com.sun.star.drawing.CustomShape">
       <g id="id110">
        <rect class="BoundingBox" stroke="none" fill="none" x="19863" y="22738" width="1060" height="4554"/>
        <path fill="rgb(114,159,207)" stroke="none" d="M 19916,22791 L 20869,22791 20869,27237 19916,27237 19916,22791 Z"/>
        <path fill="none" stroke="rgb(0,0,0)" stroke-width="106" stroke-linejoin="round" d="M 19916,22791 L 20869,22791 20869,27237 19916,27237 19916,22791 Z"/>
       </g>
      </g>
      <g class="com.sun.star.drawing.CustomShape">
       <g id="id111">
        <rect class="BoundingBox" stroke="none" fill="none" x="846" y="22738" width="3063" height="4553"/>
        <path fill="none" stroke="rgb(0,0,0)" stroke-width="106" stroke-linejoin="round" d="M 2903,22791 L 3855,22791 1851,27237 899,27237 2903,22791 Z"/>
       </g>
      </g>
      <g class="com.sun.star.drawing.CustomShape">
       <g id="id112">
        <rect class="BoundingBox" stroke="none" fill="none" x="2852" y="22738" width="3054" height="4553"/>
        <path fill="none" stroke="rgb(0,0,0)" stroke-width="106" stroke-linejoin="round" d="M 4905,22791 L 5852,22791 3852,27237 2905,27237 4905,22791 Z"/>
       </g>
      </g>
      <g class="com.sun.star.drawing.CustomShape">
       <g id="id113">
        <rect class="BoundingBox" stroke="none" fill="none" x="9856" y="22738" width="3054" height="4553"/>
        <path fill="none" stroke="rgb(0,0,0)" stroke-width="106" stroke-linejoin="round" d="M 11910,22791 L 12856,22791 10855,27237 9909,27237 11910,22791 Z"/>
       </g>
      </g>
      <g class="com.sun.star.drawing.PolyPolygonShape">
       <g id="id114">
        <rect class="BoundingBox" stroke="none" fill="none" x="11856" y="22739" width="3054" height="4528"/>
        <path fill="none" stroke="rgb(0,0,0)" stroke-width="106" stroke-linejoin="round" d="M 14137,24378 L 12853,27213 11909,27213 13193,24378 14137,24378 Z"/>
        <path fill="none" stroke="rgb(0,0,0)" stroke-width="106" stroke-linejoin="round" d="M 13481,23743 L 13912,22792 14856,22792 14425,23743 13481,23743 Z"/>
       </g>
      </g>
      <g class="com.sun.star.drawing.CustomShape">
       <g id="id115">
        <rect class="BoundingBox" stroke="none" fill="none" x="15859" y="22738" width="3054" height="4553"/>
        <path fill="none" stroke="rgb(0,0,0)" stroke-width="106" stroke-linejoin="round" d="M 17914,22791 L 18859,22791 16856,27237 15912,27237 17914,22791 Z"/>
       </g>
      </g>
      <g class="com.sun.star.drawing.CustomShape">
       <g id="id116">
        <rect class="BoundingBox" stroke="none" fill="none" x="17852" y="22738" width="3054" height="4554"/>
        <path fill="rgb(114,159,207)" stroke="none" d="M 19908,22791 L 20852,22791 18849,27237 17905,27237 19908,22791 Z"/>
        <path fill="none" stroke="rgb(0,0,0)" stroke-width="106" stroke-linejoin="round" d="M 19908,22791 L 20852,22791 18849,27237 17905,27237 19908,22791 Z"/>
       </g>
      </g>
     </g>
    </g>
   </g>
  </g>
 </g>
</svg>