<?xml version="1.0" encoding="utf-8"?>
<!-- Svg Vector Icons : http://www.onlinewebfonts.com/icon -->
<!DOCTYPE svg PUBLIC "-//W3C//DTD SVG 1.1//EN" "http://www.w3.org/Graphics/SVG/1.1/DTD/svg11.dtd">
<svg version="1.1" xmlns="http://www.w3.org/2000/svg" xmlns:xlink="http://www.w3.org/1999/xlink" x="0px" y="0px" viewBox="0 0 1000 1000" enable-background="new 0 0 1000 1000" xml:space="preserve">
<metadata> Svg Vector Icons : http://www.onlinewebfonts.com/icon </metadata>
<g><g><g><path d="M602.2,537.5l-54.2-6.5c-5.6-20.7-13.7-40.2-24.1-58.3l33.6-42.8c5.2-6.6,4.6-16.8-1.4-22.7l-55.8-55.9c-5.9-5.9-16.1-6.5-22.7-1.4l-42.9,33.7c-18.1-10.4-37.6-18.6-58.2-24.1l-6.4-54.2c-1-8.3-8.6-15.1-17-15.1h-79c-8.4,0-16,6.8-17,15.1l-6.5,54.2c-20.6,5.5-40.2,13.7-58.2,24.1L149.5,350c-6.5-5.2-16.8-4.6-22.6,1.3L71,407.3c-5.9,5.9-6.5,16.1-1.4,22.7l33.7,42.8c-10.5,18.1-18.5,37.6-24.1,58.3l-54.2,6.5c-8.3,1-15.1,8.6-15.1,17v79c0,8.4,6.8,16,15.1,17l54.2,6.5c5.5,20.6,13.6,40.1,24.1,58.2l-33.6,42.8c-5.2,6.6-4.6,16.8,1.4,22.7l55.8,55.9c5.9,6,16.1,6.5,22.6,1.4l42.9-33.8c18,10.4,37.6,18.6,58.2,24.1l6.5,54.2c1,8.3,8.6,15.1,17,15.1h79c8.4,0,16-6.8,17-15.1l6.5-54.2c20.6-5.5,40.2-13.6,58.3-24.1l42.9,33.7c6.6,5.1,16.8,4.6,22.6-1.3l55.8-56c5.9-6,6.5-16.1,1.4-22.7L524,715.2c10.5-18.1,18.5-37.6,24.1-58.3l54.2-6.5c8.3-1,15.1-8.6,15.1-17v-79C617.3,546.1,610.6,538.5,602.2,537.5z M313.7,745.7c-83.8,0-151.8-67.9-151.8-151.8c0-83.8,68-151.8,151.8-151.8c83.8,0,151.8,67.9,151.8,151.8C465.5,677.8,397.5,745.7,313.7,745.7z"/><path d="M978.8,288.3l-40.8-4.8c-4.2-15.5-10.3-30.3-18.2-44l25.4-32.2c3.9-4.9,3.4-12.6-1-17.1l-42.1-42c-4.4-4.5-12.1-4.9-17.1-1l-32.3,25.4c-13.6-7.9-28.3-13.9-43.8-18.1l-4.9-40.8c-0.7-6.3-6.5-11.4-12.7-11.4h-59.5c-6.3,0-12,5.1-12.8,11.4l-4.9,40.8c-15.6,4.1-30.3,10.2-43.9,18.1L638,147.2c-4.9-3.9-12.6-3.4-17,1l-42.1,42.1c-4.5,4.4-4.9,12.1-1,17l25.4,32.3c-7.9,13.6-13.9,28.3-18.2,43.9l-40.8,4.9c-6.3,0.7-11.3,6.5-11.3,12.8v59.5c0,6.2,5.1,12.1,11.3,12.7l40.8,5c4.2,15.5,10.3,30.2,18.2,43.8l-25.4,32.3c-3.9,4.9-3.4,12.6,1,17.1l42,42c4.5,4.5,12.1,4.9,17,1.1l32.3-25.4c13.6,7.9,28.3,14,43.8,18.1l4.9,40.9c0.7,6.1,6.5,11.2,12.8,11.2h59.5c6.3,0,12-5.1,12.8-11.2l4.9-40.9c15.5-4.1,30.3-10.2,43.8-18.1l32.3,25.3c5,3.9,12.6,3.4,17.1-1l42.1-42.1c4.4-4.4,4.9-12.1,1-17l-25.3-32.3c7.9-13.6,13.9-28.3,18.1-43.8l40.8-4.9c6.2-0.8,11.3-6.5,11.3-12.8v-59.4C990.1,294.8,985,289.1,978.8,288.3z M761.6,445.1c-63.2,0-114.3-51.2-114.3-114.3c0-63.1,51.2-114.3,114.3-114.3c63,0,114.2,51.1,114.2,114.3C875.8,393.9,824.7,445.1,761.6,445.1z"/></g></g><g></g><g></g><g></g><g></g><g></g><g></g><g></g><g></g><g></g><g></g><g></g><g></g><g></g><g></g><g></g></g>
</svg>